<svg width="27" height="21" viewBox="0 0 27 21" fill="none" xmlns="http://www.w3.org/2000/svg">
<path d="M14.5469 0.546535C14.897 0.196589 15.3717 0 15.8667 0C16.3616 0 16.8363 0.196589 17.1864 0.546535L25.5864 8.94654C25.9363 9.29659 26.1329 9.77129 26.1329 10.2663C26.1329 10.7612 25.9363 11.2359 25.5864 11.586L17.1864 19.986C16.8343 20.326 16.3628 20.5142 15.8734 20.5099C15.384 20.5057 14.9158 20.3094 14.5697 19.9633C14.2236 19.6172 14.0273 19.149 14.023 18.6595C14.0188 18.1701 14.2069 17.6986 14.5469 17.3465L19.6 12.1329H1.86667C1.3716 12.1329 0.896802 11.9363 0.546734 11.5862C0.196666 11.2361 0 10.7613 0 10.2663C0 9.7712 0.196666 9.2964 0.546734 8.94634C0.896802 8.59627 1.3716 8.3996 1.86667 8.3996H19.6L14.5469 3.186C14.197 2.83595 14.0004 2.36124 14.0004 1.86627C14.0004 1.37129 14.197 0.896586 14.5469 0.546535Z" fill="black"/>
</svg>
