<svg width="27" height="21" viewBox="0 0 27 21" fill="none" xmlns="http://www.w3.org/2000/svg">
<path d="M12.1482 20.3684C11.8082 20.7282 11.3392 20.9381 10.8445 20.9522C10.3497 20.9663 9.8696 20.7832 9.50975 20.4434L0.874645 12.2852C0.5149 11.9453 0.304913 11.4763 0.290859 10.9816C0.276805 10.4868 0.459837 10.0067 0.799704 9.64684L8.95782 1.01173C9.30008 0.661844 9.76607 0.460381 10.2554 0.450737C10.7448 0.441092 11.2184 0.624034 11.5741 0.960164C11.9299 1.29629 12.1394 1.75871 12.1576 2.24783C12.1757 2.73695 12.0011 3.21362 11.6712 3.57519L6.76816 8.93016L24.4943 8.42667C24.9892 8.41261 25.4694 8.59572 25.8293 8.9357C26.1891 9.27569 26.3992 9.74471 26.4133 10.2396C26.4273 10.7345 26.2442 11.2146 25.9042 11.5745C25.5642 11.9344 25.0952 12.1444 24.6003 12.1585L6.87416 12.662L12.0732 17.73C12.433 18.07 12.6429 18.5389 12.657 19.0337C12.6711 19.5285 12.488 20.0086 12.1482 20.3684Z" fill="black"/>
</svg>
