<svg width="38" height="39" viewBox="0 0 38 39" fill="none" xmlns="http://www.w3.org/2000/svg">
<path d="M21.5 3C21.5 1.61929 20.3807 0.5 19 0.5C17.6193 0.5 16.5 1.61929 16.5 3L21.5 3ZM17.2322 37.7678C18.2085 38.7441 19.7915 38.7441 20.7678 37.7678L36.6777 21.8579C37.654 20.8816 37.654 19.2986 36.6777 18.3223C35.7014 17.346 34.1184 17.346 33.1421 18.3223L19 32.4645L4.85786 18.3223C3.88155 17.346 2.29864 17.346 1.32233 18.3223C0.34602 19.2986 0.34602 20.8816 1.32233 21.8579L17.2322 37.7678ZM16.5 3L16.5 36L21.5 36L21.5 3L16.5 3Z" fill="white"/>
</svg>
