<svg width="13" height="13" viewBox="0 0 13 13" fill="none" xmlns="http://www.w3.org/2000/svg">
<path fill-rule="evenodd" clip-rule="evenodd" d="M0.125 6.5C0.125 7.33718 0.289894 8.16616 0.610268 8.93961C0.930642 9.71306 1.40022 10.4158 1.99219 11.0078C2.58417 11.5998 3.28694 12.0694 4.06039 12.3897C4.83384 12.7101 5.66282 12.875 6.5 12.875C7.33718 12.875 8.16616 12.7101 8.93961 12.3897C9.71306 12.0694 10.4158 11.5998 11.0078 11.0078C11.5998 10.4158 12.0694 9.71306 12.3897 8.93961C12.7101 8.16616 12.875 7.33718 12.875 6.5C12.875 4.80925 12.2034 3.18774 11.0078 1.99219C9.81226 0.79665 8.19075 0.125 6.5 0.125C4.80925 0.125 3.18774 0.79665 1.99219 1.99219C0.79665 3.18774 0.125 4.80925 0.125 6.5ZM12.125 6.5C12.125 7.99184 11.5324 9.42258 10.4775 10.4775C9.42258 11.5324 7.99184 12.125 6.5 12.125C5.00816 12.125 3.57742 11.5324 2.52252 10.4775C1.46763 9.42258 0.875 7.99184 0.875 6.5C0.875 5.00816 1.46763 3.57742 2.52252 2.52252C3.57742 1.46763 5.00816 0.875 6.5 0.875C7.99184 0.875 9.42258 1.46763 10.4775 2.52252C11.5324 3.57742 12.125 5.00816 12.125 6.5Z" fill="black"/>
<path fill-rule="evenodd" clip-rule="evenodd" d="M3.875 6.5C3.875 9.797 4.9565 12.5 6.5 12.5C8.0435 12.5 9.125 9.797 9.125 6.5C9.125 3.203 8.0435 0.5 6.5 0.5C4.9565 0.5 3.875 3.203 3.875 6.5ZM8.375 6.5C8.375 9.41675 7.44125 11.75 6.5 11.75C5.55875 11.75 4.625 9.41675 4.625 6.5C4.625 3.58325 5.55875 1.25 6.5 1.25C7.44125 1.25 8.375 3.58325 8.375 6.5Z" fill="black"/>
<path d="M1.80125 2.98399L2.30375 2.42749C2.384 2.49949 2.4695 2.56999 2.561 2.63824C3.5495 3.37924 5.1095 3.83074 6.80975 3.83074C8.2595 3.83074 9.6125 3.50299 10.601 2.93824C10.8288 2.80938 11.0439 2.65947 11.2438 2.49049L11.7313 3.06049C11.5078 3.25174 11.2543 3.42799 10.9738 3.58849C9.866 4.22224 8.38475 4.58074 6.80975 4.58074C4.95725 4.58074 3.23825 4.08349 2.111 3.23824C2.00389 3.15804 1.90053 3.0737 1.80125 2.98399ZM1.80125 10.025L2.30375 10.58C2.384 10.508 2.4695 10.4375 2.561 10.37C3.5495 9.62899 5.1095 9.17749 6.80975 9.17749C8.2595 9.17749 9.6125 9.50449 10.601 10.07C10.8418 10.208 11.057 10.358 11.2438 10.517L11.7313 9.94699C11.4958 9.74771 11.2422 9.57094 10.9738 9.41899C9.866 8.78599 8.38475 8.42749 6.80975 8.42749C4.95725 8.42749 3.23825 8.92474 2.111 9.76924C2.0015 9.85174 1.898 9.93724 1.80125 10.025ZM0.5 6.87499V6.12499H12.5V6.87499H0.5Z" fill="black"/>
</svg>
