<svg width="81" height="69" viewBox="0 0 81 69" fill="none" xmlns="http://www.w3.org/2000/svg">
<path d="M8.4375 34.5C8.4375 21.6257 8.4375 15.1858 13.1321 11.1866C17.8268 7.1875 25.3834 7.1875 40.5 7.1875C55.6133 7.1875 63.1732 7.1875 67.8679 11.1866C72.5625 15.1858 72.5625 21.6229 72.5625 34.5C72.5625 47.3743 72.5625 53.8142 67.8679 57.8134C63.1732 61.8125 55.6166 61.8125 40.5 61.8125C25.3867 61.8125 17.8268 61.8125 13.1321 57.8134C8.4375 53.8142 8.4375 47.3771 8.4375 34.5Z" stroke="white" stroke-width="1.5" stroke-linecap="round" stroke-linejoin="round"/>
<path d="M59.0895 18.6875H59.0557M55.6875 34.5C55.6875 37.9312 54.0874 41.2219 51.2392 43.6482C48.391 46.0744 44.528 47.4375 40.5 47.4375C36.472 47.4375 32.609 46.0744 29.7608 43.6482C26.9126 41.2219 25.3125 37.9312 25.3125 34.5C25.3125 31.0688 26.9126 27.7781 29.7608 25.3518C32.609 22.9256 36.472 21.5625 40.5 21.5625C44.528 21.5625 48.391 22.9256 51.2392 25.3518C54.0874 27.7781 55.6875 31.0688 55.6875 34.5Z" stroke="white" stroke-width="1.5" stroke-linecap="round" stroke-linejoin="round"/>
</svg>
