<svg width="446" height="446" viewBox="0 0 446 446" fill="none" xmlns="http://www.w3.org/2000/svg">
<path d="M129.55 0.5H316.45C387.65 0.5 445.5 58.35 445.5 129.55V316.45C445.5 350.676 431.904 383.501 407.702 407.702C383.501 431.904 350.676 445.5 316.45 445.5H129.55C58.35 445.5 0.5 387.65 0.5 316.45V129.55C0.5 95.3238 14.0963 62.4994 38.2979 38.2979C62.4994 14.0963 95.3238 0.5 129.55 0.5ZM125.1 45C103.856 45 83.4824 53.4391 68.4607 68.4607C53.4391 83.4824 45 103.856 45 125.1V320.9C45 365.177 80.8225 401 125.1 401H320.9C342.144 401 362.518 392.561 377.539 377.539C392.561 362.518 401 342.144 401 320.9V125.1C401 80.8225 365.177 45 320.9 45H125.1ZM339.812 78.375C347.189 78.375 354.263 81.3052 359.479 86.5211C364.695 91.7369 367.625 98.8112 367.625 106.188C367.625 113.564 364.695 120.638 359.479 125.854C354.263 131.07 347.189 134 339.812 134C332.436 134 325.362 131.07 320.146 125.854C314.93 120.638 312 113.564 312 106.188C312 98.8112 314.93 91.7369 320.146 86.5211C325.362 81.3052 332.436 78.375 339.812 78.375ZM223 111.75C252.505 111.75 280.802 123.471 301.666 144.334C322.529 165.198 334.25 193.495 334.25 223C334.25 252.505 322.529 280.802 301.666 301.666C280.802 322.529 252.505 334.25 223 334.25C193.495 334.25 165.198 322.529 144.334 301.666C123.471 280.802 111.75 252.505 111.75 223C111.75 193.495 123.471 165.198 144.334 144.334C165.198 123.471 193.495 111.75 223 111.75ZM223 156.25C205.297 156.25 188.319 163.283 175.801 175.801C163.283 188.319 156.25 205.297 156.25 223C156.25 240.703 163.283 257.681 175.801 270.199C188.319 282.717 205.297 289.75 223 289.75C240.703 289.75 257.681 282.717 270.199 270.199C282.717 257.681 289.75 240.703 289.75 223C289.75 205.297 282.717 188.319 270.199 175.801C257.681 163.283 240.703 156.25 223 156.25Z" fill="white"/>
</svg>
