<svg width="13" height="10" viewBox="0 0 13 10" fill="none" xmlns="http://www.w3.org/2000/svg">
<path d="M3.13768 4.17021C4.03768 5.52625 5.48768 6.63792 7.25643 7.32792L8.63143 6.27375C8.80643 6.13958 9.05018 6.10125 9.26893 6.15396C9.96893 6.33125 10.7189 6.42708 11.5002 6.42708C11.6659 6.42708 11.8249 6.47757 11.9421 6.56743C12.0593 6.65729 12.1252 6.77917 12.1252 6.90625V8.58333C12.1252 8.71042 12.0593 8.83229 11.9421 8.92216C11.8249 9.01202 11.6659 9.0625 11.5002 9.0625C8.68226 9.0625 5.97975 8.20428 3.98717 6.67664C1.9946 5.149 0.875183 3.07708 0.875183 0.916667C0.875183 0.789584 0.941031 0.667706 1.05824 0.577845C1.17545 0.487983 1.33442 0.4375 1.50018 0.4375H3.68768C3.85344 0.4375 4.01241 0.487983 4.12962 0.577845C4.24683 0.667706 4.31268 0.789584 4.31268 0.916667C4.31268 1.51562 4.43768 2.09063 4.66893 2.62729C4.73768 2.795 4.68768 2.98187 4.51268 3.11604L3.13768 4.17021Z" fill="black"/>
</svg>
