<svg width="368" height="281" viewBox="0 0 368 281" fill="none" xmlns="http://www.w3.org/2000/svg">
<g clip-path="url(#clip0_746_23)">
<path fill-rule="evenodd" clip-rule="evenodd" d="M303.247 67.9267C307.036 66.3319 311.184 65.7818 315.258 66.3338C319.332 66.8858 323.183 68.5196 326.411 71.0652C329.639 73.6108 332.126 76.9751 333.613 80.8079C335.1 84.6408 335.532 88.8021 334.865 92.8587L300.089 303.799C296.715 324.147 274.39 335.815 255.729 325.68C240.12 317.201 216.936 304.137 196.083 290.505C185.656 283.682 153.717 261.832 157.642 246.284C161.015 232.99 214.682 183.034 245.349 153.333C257.385 141.665 251.896 134.933 237.682 145.667C202.385 172.316 145.713 212.842 126.975 224.25C110.446 234.309 101.829 236.026 91.5247 234.309C72.726 231.181 55.292 226.335 41.0627 220.432C21.8347 212.459 22.77 186.024 41.0473 178.327L303.247 67.9267Z" fill="white"/>
</g>
<defs>
<clipPath id="clip0_746_23">
<rect width="368" height="368" fill="white"/>
</clipPath>
</defs>
</svg>
