<svg width="239" height="239" viewBox="0 0 239 239" fill="none" xmlns="http://www.w3.org/2000/svg">
<path d="M119.5 19.9167C64.53 19.9167 19.9167 64.53 19.9167 119.5C19.9167 174.47 64.53 219.083 119.5 219.083C174.47 219.083 219.083 174.47 219.083 119.5C219.083 64.53 174.47 19.9167 119.5 19.9167ZM165.707 87.6333C164.213 103.368 157.74 141.607 154.454 159.234C153.06 166.702 150.271 169.192 147.682 169.491C141.906 169.989 137.525 165.707 131.948 162.022C123.185 156.246 118.205 152.661 109.741 147.085C99.8821 140.612 106.255 137.027 111.932 131.251C113.425 129.757 138.919 106.554 139.417 104.463C139.486 104.146 139.477 103.817 139.39 103.505C139.303 103.193 139.141 102.906 138.919 102.67C138.321 102.173 137.525 102.372 136.827 102.471C135.931 102.67 121.99 111.932 94.8033 130.255C90.82 132.944 87.235 134.338 84.0483 134.238C80.4633 134.139 73.6917 132.247 68.6129 130.554C62.3392 128.562 57.4596 127.467 57.8579 123.981C58.0571 122.189 60.5467 120.396 65.2271 118.504C94.3054 105.857 113.625 97.4921 123.284 93.5088C150.968 81.9571 156.645 79.9654 160.429 79.9654C161.225 79.9654 163.117 80.1646 164.312 81.1604C165.308 81.9571 165.607 83.0525 165.707 83.8492C165.607 84.4467 165.806 86.2392 165.707 87.6333Z" fill="white"/>
</svg>
