<svg width="256" height="218" viewBox="0 0 256 218" fill="none" xmlns="http://www.w3.org/2000/svg">
<path d="M229.376 166.961H205.035C195.829 166.961 193.056 160.612 176.555 146.551C162.133 134.715 156.043 133.243 152.395 133.243C147.349 133.243 145.973 134.424 145.973 140.337V158.977C145.973 164.018 144.053 166.97 128.587 166.97C113.582 166.111 99.031 162.23 86.133 155.644C73.235 149.059 62.3587 139.958 54.4 129.092C35.5028 109.064 22.3542 85.5566 16 60.4405C16 57.334 17.3867 54.5182 24.3413 54.5182H48.6613C54.912 54.5182 57.1627 56.8889 59.616 62.3662C71.424 91.9597 91.5733 117.702 99.7547 117.702C102.891 117.702 104.256 116.521 104.256 109.863V79.3792C103.221 65.4727 94.5493 64.3009 94.5493 59.2687C94.659 57.9411 95.3722 56.7022 96.5373 55.8152C97.7025 54.9282 99.2278 54.4629 100.789 54.5182H139.019C144.245 54.5182 145.973 56.7345 145.973 62.0573V103.205C145.973 107.647 148.213 109.118 149.792 109.118C152.928 109.118 155.339 107.647 161.088 102.76C173.412 89.9612 183.48 75.702 190.976 60.4314C191.743 58.598 193.194 57.0286 195.106 55.9626C197.018 54.8966 199.288 54.3925 201.568 54.5272H225.899C233.195 54.5272 234.741 57.6337 233.195 62.0664C224.345 78.947 213.396 94.9708 200.533 109.863C197.909 113.269 196.864 115.04 200.533 119.037C202.944 122.144 211.477 128.211 217.205 133.979C225.547 141.064 232.469 149.257 237.707 158.232C239.797 164.009 236.32 166.961 229.376 166.961Z" fill="white"/>
</svg>
