<svg width="15" height="15" viewBox="0 0 15 15" fill="none" xmlns="http://www.w3.org/2000/svg">
<path d="M8.25 6.75H11.25C11.4489 6.75 11.6397 6.82902 11.7803 6.96967C11.921 7.11032 12 7.30109 12 7.5C12 7.69891 11.921 7.88968 11.7803 8.03033C11.6397 8.17098 11.4489 8.25 11.25 8.25H7.5C7.30109 8.25 7.11032 8.17098 6.96967 8.03033C6.82902 7.88968 6.75 7.69891 6.75 7.5V3C6.75 2.80109 6.82902 2.61032 6.96967 2.46967C7.11032 2.32902 7.30109 2.25 7.5 2.25C7.69891 2.25 7.88968 2.32902 8.03033 2.46967C8.17098 2.61032 8.25 2.80109 8.25 3V6.75ZM7.5 15C3.35775 15 0 11.6423 0 7.5C0 3.35775 3.35775 0 7.5 0C11.6423 0 15 3.35775 15 7.5C15 11.6423 11.6423 15 7.5 15ZM7.5 13.5C9.0913 13.5 10.6174 12.8679 11.7426 11.7426C12.8679 10.6174 13.5 9.0913 13.5 7.5C13.5 5.9087 12.8679 4.38258 11.7426 3.25736C10.6174 2.13214 9.0913 1.5 7.5 1.5C5.9087 1.5 4.38258 2.13214 3.25736 3.25736C2.13214 4.38258 1.5 5.9087 1.5 7.5C1.5 9.0913 2.13214 10.6174 3.25736 11.7426C4.38258 12.8679 5.9087 13.5 7.5 13.5Z" fill="white"/>
</svg>
